<?xml version="1.0" encoding="UTF-8" standalone="no"?>
<!-- Created with Inkscape (http://www.inkscape.org/) -->

<svg
   width="10mm"
   height="10mm"
   viewBox="0 0 10 10"
   version="1.1"
   id="svg1"
   xml:space="preserve"
   inkscape:version="1.4 (86a8ad7, 2024-10-11)"
   sodipodi:docname="FloaterIcon.svg"
   xmlns:inkscape="http://www.inkscape.org/namespaces/inkscape"
   xmlns:sodipodi="http://sodipodi.sourceforge.net/DTD/sodipodi-0.dtd"
   xmlns="http://www.w3.org/2000/svg"
   xmlns:svg="http://www.w3.org/2000/svg"><sodipodi:namedview
     id="namedview1"
     pagecolor="#505050"
     bordercolor="#eeeeee"
     borderopacity="1"
     inkscape:showpageshadow="0"
     inkscape:pageopacity="0"
     inkscape:pagecheckerboard="true"
     inkscape:deskcolor="#505050"
     inkscape:document-units="mm"
     inkscape:zoom="2.8284271"
     inkscape:cx="-243.59829"
     inkscape:cy="-66.291261"
     inkscape:window-width="3818"
     inkscape:window-height="2104"
     inkscape:window-x="-9"
     inkscape:window-y="-34"
     inkscape:window-maximized="0"
     inkscape:current-layer="layer1" /><defs
     id="defs1" /><g
     inkscape:label="Layer 1"
     inkscape:groupmode="layer"
     id="layer1"><path
       style="fill:#ffbe28;fill-opacity:1;stroke-width:0.264583"
       d="M 0.95011548,4.0538262 C -0.34798177,4.5619614 -0.9894412,9.7411203 3.9511809,9.962192 8.7358269,10.176284 8.5070365,7.286208 8.4173194,6.5733916 8.2980349,5.6256579 7.3908338,5.6248309 7.5235069,4.7857669 7.5478174,4.6320202 7.4616366,4.4225625 8.35329,3.4455553 9.0656229,2.665034 7.9031689,-0.01972672 6.0234025,0.00743151 3.9609268,0.03722946 3.6412658,1.3175683 3.4978326,2.0057993 3.1577929,3.6374009 4.5855925,4.3869089 4.3564553,5.0743206 3.9975229,6.1511179 1.6922192,5.5796419 0.95011548,4.0538262 Z"
       id="path1"
       sodipodi:nodetypes="csssssssc"
       inkscape:label="body" /><circle
       style="fill:#2f2f2f;fill-opacity:1;stroke-width:0.106124"
       id="path2"
       cx="7.4951496"
       cy="1.8810222"
       r="0.30179039"
       inkscape:label="eye" /><path
       style="fill:#ff8000;fill-opacity:1;stroke-width:0.264583"
       d="M 9.9938238,2.7742416 C 9.9855505,3.2973873 8.4526338,3.9251228 7.8155435,4.0948404 7.3098227,3.8064059 7.1526817,3.582058 7.1768229,3.249414 7.2064192,2.8416047 8.1608318,2.8201746 8.4739012,2.1704101 9.0928951,2.7691482 10.002072,2.2526607 9.9938238,2.7742416 Z"
       id="path3"
       sodipodi:nodetypes="scscs"
       inkscape:label="beak" /><path
       style="fill:#ff8000;fill-opacity:1;stroke-width:0.242461"
       d="M 5.0844648,7.0434264 C 4.678276,6.2306851 3.4318418,7.5640137 1.2598056,6.081644 0.49553656,7.0399327 2.2417234,9.2885599 4.2234286,8.7920911 4.8676469,8.6306977 5.3982153,7.6712085 5.0844648,7.0434264 Z"
       id="path4"
       sodipodi:nodetypes="scss"
       inkscape:label="wing" /></g></svg>
